<svg xmlns="http://www.w3.org/2000/svg" width="77" height="56" viewBox="0 0 77 56"><rect width="77" height="56" rx="7" fill="#ea003d"/><path d="M42.9366 40.7667L46.817 34.0422H39.0542L42.9366 40.7667zM33.2842 40.7667L37.1646 34.0422H29.4038L33.2842 40.7667zM38.1109 34.4344L41.9933 41.1589H34.2305L38.1109 34.4344zM47.774 32.3855L51.6544 25.661H43.8916L47.774 32.3855zM43.1006 26.308L46.981 33.0325H39.2202L43.1006 26.308zM28.4478 32.3884L24.5674 25.6638H32.3302L28.4478 32.3884zM33.1231 26.308L29.2407 33.0325H37.0035L33.1231 26.308zM20.7219 28.0293L14 24.1454V31.9112L20.7219 28.0293zM20.7219 38.1181L14 34.2363V42L20.7219 38.1181zM14.001 33.0736L20.7209 29.1918V36.9555L14.001 33.0736zM20.7219 17.8839L14 14V21.7657L20.7219 17.8839zM62.9998 28.0293L56.2778 24.1454V31.9112L62.9998 28.0293zM62.9998 38.1181L56.2778 34.2363V42L62.9998 38.1181zM56.2788 33.0736L62.9988 29.1918V36.9555L56.2788 33.0736zM62.9998 17.8839L56.2778 14V21.7657L62.9998 17.8839z" fill="#fff"/></svg>